
<svg xmlns="http://www.w3.org/2000/svg" width="90px" height="50px" viewBox="0 0 537.845 364.543">
  <g id="Group_2028" data-name="Group 2028" transform="translate(-36.386 -213.728)">
    <path id="Path_2447" data-name="Path 2447" d="M453.008,370.682c-11.532,0-23.063-.018-34.6.006-8.087.018-13.674,5.171-13.787,12.646-.105,6.978,6.056,12.877,13.727,12.893,21.748.043,43.5-.061,65.246,0,9.474.029,15.517,8.493,12.274,17.047-1.961,5.172-6.031,7.7-11.384,8.125-2.9.232-5.836.013-8.755.052-7.264.1-12.772,5.058-13.224,11.867-.462,6.963,4.632,12.711,12.019,13.564,8.572.989,13.175,5.212,13.29,12.194.127,7.675-5.012,13.023-12.726,13.051-18.391.066-36.782.05-55.173.084-6.953.013-6.6-.081-6.956,6.161-.633,11.065-10.027,19.107-22.174,19.186-21.893.144-43.788.065-65.682.087-18.1.018-36.2-.1-54.294.19-4.143.067-5.36-1.421-5.583-5.123-.786-13.061-2.134-26.076-2.931-39.146-1.82-29.851-1.951-59.707-1.245-89.563.52-21.961,2.1-43.89,4.313-65.755.267-2.637.415-5.832,5.2-3.97,2.8,1.089,6.343.283,9.552.286q84.51.056,169.021.1c16.929.01,33.859-.084,50.786.108,7.868.089,12.849,5.885,12.367,13.691-.413,6.7-5.844,11.386-13.522,11.432-11.969.073-23.938.009-35.908.024-8.393.01-14.05,5.207-14.039,12.858.01,7.622,5.624,12.645,14.178,12.658,8.32.013,16.641-.005,24.962,0,7.656.006,13.567,5.331,13.687,12.313.127,7.339-5.527,12.781-13.606,12.842-11.678.089-23.356.023-35.034.023Z" fill="#40a579"/>
    <path id="Path_2448" data-name="Path 2448" d="M174.839,405.359q0-42.4.006-84.805c.009-13.144,5.426-20.975,17.647-25.387a14.364,14.364,0,0,1,4.734-.48c13.427-.045,26.854-.033,40.28-.055,5.744-.01,6.626-.572,7.119-6.242a274,274,0,0,1,7.247-42.046c2.145-8.669,4.765-17.3,9.9-24.873a19.7,19.7,0,0,1,8.074-7.046c4.052-1.817,7.627.161,10.576,3.151C286.969,224.21,289.217,233,292.1,241.4c1.692,4.925,2.641,10.107,3.872,15.187.818,3.377,1.781,6.508,4.182,9.342,4,4.726,3.9,9.577.516,13.366-2.921,3.27-8.775,4.428-12.183,2.41-4.128-2.443-7.033-8.992-4.439-12.8s1.673-7.259.976-10.733c-1.645-8.21-3.9-16.3-5.766-24.465-.619-2.7-2.651-4.464-3.958-6.688-1.269-2.159-4.629-1.363-6.094,1.238-4.86,8.63-6.5,18.265-8.552,27.755-2.76,12.764-4.4,25.723-5.939,38.662-1.5,12.685-2.285,25.46-3.2,38.216-2.267,31.69-1.656,63.411-1.58,95.111.045,18.561,1.281,37.172,3.038,55.66a561.313,561.313,0,0,0,9.7,61.262c1.314,6.308,2.825,12.792,6.256,18.479,2.318,3.843,5.688,3.973,7.566.08,5.433-11.262,8.058-23.286,9.054-35.7.123-1.533-.585-2.8-1.143-4.154-2.1-5.1-.565-10.428,3.708-13.113,3.212-2.018,9.784-.68,13.171,2.684,2.767,2.747,3.7,9.746.248,12.317-5.618,4.185-5.08,10-6.241,15.471-1.637,7.706-4.609,14.963-7.129,22.38-1.312,3.863-3.913,6.941-5.96,10.285-4.068,6.645-15.024,5.874-19.246-.708-8.41-13.111-11.58-27.914-14.672-42.851-1.969-9.513-2.8-19.179-4.693-28.687-.552-2.77-1.888-3.739-4.782-3.725-19.264.093-38.528-.016-57.793-.011-6.36,0-6.369.067-6.37-6.578q0-42.865,0-85.731ZM293.184,270.437c-1.844.139-2.661,1.236-2.762,3.073-.091,1.653.5,3.018,2.194,3.044,1.584.024,3.119-.795,3.144-2.729C295.781,272.183,295.294,270.682,293.184,270.437Zm.248,251.683c2.033-.069,2.44-1.288,2.386-2.91-.054-1.64-.683-2.912-2.475-2.761-1.659.141-2.978.954-2.946,2.989C290.431,521.574,291.891,521.94,293.432,522.12Z" fill="#9155FD"/>
    <path id="Path_2449" data-name="Path 2449" d="M81.079,497.62q-17.291.021-34.581.039c-6.367,0-8.358-1.42-9.254-7.881-1.445-10.424-.594-20.949-.738-31.43-.09-6.553.843-13.044,1.529-19.549.258-2.445,1.835-4.029,3.872-3.933,4.384.205,4.925-2.852,4.752-5.608-.246-3.913,1.522-4.093,4.632-4.139,9.976-.146,8.99,1.442,9.02-8.711.008-2.622.1-5.25-.031-7.865-.119-2.3.133-4.2,2.566-5.314a2.862,2.862,0,0,0,1.725-2.774c-.077-4.663.023-9.328.02-13.992a2.572,2.572,0,0,0-1.415-2.507c-4.57-2.372-9.883.3-10.145,5.334-.271,5.206-.086,10.314,2.462,15.216,2.393,4.6-.194,9.714.538,14.568.024.156-.4.379-.613.57-1.341,1.191-12.483,1.083-14.1.03-1.439-.936-.71-1.875-.441-3a295.926,295.926,0,0,1,13.46-42.824c2.142-5.275,1.913-11.071,4.691-16.21,4.994-9.237,11.911-15.749,22.787-15.879,24.617-.3,49.239-.1,73.859-.121,3.783,0,7.567-.069,11.35-.093,2.144-.014,3.654.522,3.545,3.2-1.028,25.2-.123,50.41-.494,75.612-.158,10.751.722,21.515-.361,32.256a26.04,26.04,0,0,0-4.315-.227c-13.048,1.427-26.13.5-39.19.479a44.622,44.622,0,0,0-13.275,1.514C93.822,460.323,80.342,477.936,81.079,497.62ZM59.407,479.132c-.015,1.076.086,2.2,1.469,2.215,4.8.066,9.6.105,14.4.014,1.584-.03,2.4-.972,1.733-2.669,1.157-2.966-.086-3.926-3-3.822a94.008,94.008,0,0,1-10.827-.006C59.676,474.583,58.833,476.1,59.407,479.132Zm81.516-32.32c6.027.268,6.831-.48,6.856-6.445.013-3.188.066-6.378-.028-9.563-.14-4.8-1.87-6.1-6.536-5.064-2.724-1.363-4.391-.62-4.911,2.445a46.656,46.656,0,0,0,.011,16.313C136.818,447.252,138.288,448.225,140.923,446.812ZM83.1,358.438c-7.95,1.105-11.456,4.3-12.524,11.886q-1.848,13.131-3.311,26.315c-.775,6.91-1.357,13.844-1.907,20.777-.271,3.428,1.421,5.143,4.954,5.016a18.185,18.185,0,0,0,5.575-.807c4.492-1.589,9.042-3.015,13.573-4.494,15.426-5.034,30.877-10,46.273-15.123,7.279-2.423,7.826-3.436,7.5-11.011.046-7.869.109-15.738.132-23.607.023-7.687-2.018-9.741-9.666-9.747q-22.979-.018-45.959-.006C86.148,357.637,84.507,357.383,83.1,358.438Z" fill="#9155FD"/>
    <path id="Path_2450" data-name="Path 2450" d="M153.9,497.619c.407,15.111-11.816,28.253-26.987,28.537-18.921.353-29.53-13.657-29.757-28.6a28.526,28.526,0,0,1,28.054-28.589A28.2,28.2,0,0,1,153.9,497.619Zm-27.933,19.4c-8.472-3.795-13.895-9.78-13.965-19.275-.071-9.642,5.655-15.621,14.466-19.956-12.941.509-21.212,8.887-20.85,20.576C105.923,508.388,114.257,518.08,125.963,517.021Z" fill="#40a579"/>
    <path id="Path_2451" data-name="Path 2451" d="M81.079,497.62c-.737-19.684,12.743-37.3,31.856-43.244a44.622,44.622,0,0,1,13.275-1.514c13.06.017,26.142.948,39.19-.479a26.04,26.04,0,0,1,4.315.227c1.62.986,1,2.6,1.008,3.961.052,12.224-.073,24.45.127,36.671.055,3.4-.847,4.946-4.377,4.5a6.429,6.429,0,0,0-3.032.164c-2.721,1.077-3.215-.277-3.353-2.567-.678-11.277-5.955-19.962-15.035-26.522-16.494-11.915-42.513-4.822-50.772,13.788a41.308,41.308,0,0,0-3.2,12.56c-.263,2.471-1.15,3.641-3.942,2.929A33.948,33.948,0,0,0,81.079,497.62Z" fill="#40a579"/>
    <path id="Path_2452" data-name="Path 2452" d="M546.357,320.092c5.106,0,10.213-.078,15.316.019a12.642,12.642,0,0,1,12.549,12.09c.268,6.7-5.157,12.944-12.015,13.109q-15.964.384-31.942.012a12.565,12.565,0,0,1,.341-25.119c5.248-.122,10.5-.024,15.751-.024Z" fill="#40a579"/>
    <path id="Path_2453" data-name="Path 2453" d="M523.554,434.859a12.833,12.833,0,0,1-12.759,12.7,12.591,12.591,0,0,1-12.365-12.574,12.562,12.562,0,0,1,25.124-.126Z" fill="#40a579"/>
    <path id="Path_2454" data-name="Path 2454" d="M517.434,382.214c.009-7.141,5.062-12.609,11.656-12.615,7.391-.007,13.489,5.775,13.369,12.677a12.524,12.524,0,0,1-12.7,12.231C522.525,394.435,517.424,389.347,517.434,382.214Z" fill="#40a579"/>
    <path id="Path_2455" data-name="Path 2455" d="M83.1,358.438a7.812,7.812,0,0,0-3.011,6.758c.11,11.333.021,22.668.106,34,.04,5.434,3.057,7.777,8.189,6.419q27.439-7.264,54.854-14.62c.321,7.576-.226,8.589-7.505,11.012-15.4,5.125-30.847,10.089-46.273,15.123-4.531,1.479-9.081,2.9-13.573,4.494a18.185,18.185,0,0,1-5.575.807c-3.533.127-5.225-1.588-4.954-5.016.55-6.933,1.132-13.867,1.907-20.777q1.479-13.178,3.311-26.315C71.639,362.738,75.145,359.543,83.1,358.438Z" fill="#40a579"/>
    <path id="Path_2456" data-name="Path 2456" d="M141.215,425.74c-.411.369-1.175.733-1.18,1.106-.085,6.67-1.369,13.4.887,19.966-2.634,1.413-4.1.44-4.607-2.314a46.656,46.656,0,0,1-.011-16.313C136.824,425.12,138.491,424.377,141.215,425.74Z" fill="#40a579"/>
    <path id="Path_2457" data-name="Path 2457" d="M59.407,479.132c-.574-3.035.269-4.549,3.769-4.268A94.008,94.008,0,0,0,74,474.87c2.915-.1,4.158.856,3.005,3.823C71.14,478.657,65.259,478.321,59.407,479.132Z" fill="#40a579"/>
  </g>
</svg>
