<?xml version="1.0" standalone="no"?>
<!DOCTYPE svg PUBLIC "-//W3C//DTD SVG 20010904//EN"
 "http://www.w3.org/TR/2001/REC-SVG-20010904/DTD/svg10.dtd">
<svg version="1.0" xmlns="http://www.w3.org/2000/svg"
 width="373.000000pt" height="109.000000pt" viewBox="0 0 373.000000 109.000000"
 preserveAspectRatio="xMidYMid meet">

<g transform="translate(0.000000,109.000000) scale(0.100000,-0.100000)"
fill="#000000" stroke="none">
<path d="M476 1079 c-32 -5 -64 -14 -70 -22 -6 -7 -37 -30 -68 -51 -31 -21
-63 -45 -70 -54 -7 -9 10 0 38 21 70 50 150 85 231 102 77 15 35 18 -61 4z"/>
<path d="M303 1021 c-160 -88 -260 -240 -279 -422 -17 -172 64 -361 202 -470
26 -21 52 -35 56 -33 5 3 -14 22 -40 43 -132 105 -202 246 -202 411 0 193 98
361 271 463 74 43 68 50 -8 8z"/>
<path d="M802 945 l-34 -56 71 -65 c102 -94 144 -181 149 -309 3 -70 0 -106
-13 -146 -63 -195 -225 -321 -435 -339 l-85 -7 95 -1 c152 -3 263 38 362 130
l53 50 -49 -41 c-48 -40 -144 -92 -196 -105 -14 -4 4 9 40 29 191 105 287 318
235 520 -27 102 -104 214 -184 268 l-24 16 27 46 c15 25 26 50 24 56 -2 5 -18
-16 -36 -46z"/>
<path d="M491 870 c-18 -4 -51 -16 -72 -25 -46 -21 -51 -48 -18 -101 l20 -33
55 44 c65 54 97 71 166 90 l53 15 -60 -5 c-33 -4 -70 -7 -82 -8 -11 -1 -19 -5
-17 -9 2 -3 -12 -16 -31 -28 -19 -12 -43 -32 -53 -45 l-19 -23 -16 28 c-9 15
-17 31 -17 35 0 9 88 48 140 61 37 10 40 12 15 12 -16 0 -45 -4 -64 -8z"/>
<path d="M574 800 c-32 -17 -77 -47 -98 -67 l-39 -36 29 -24 c16 -14 46 -36
68 -51 38 -26 38 -26 53 -7 19 26 45 75 39 75 -2 0 -14 -16 -25 -36 l-21 -36
-43 33 c-23 18 -46 36 -51 41 -19 16 91 95 172 124 l37 13 -31 1 c-17 0 -57
-14 -90 -30z"/>
<path d="M658 702 l-67 -117 57 -27 c74 -34 102 -42 102 -29 0 6 -26 23 -57
36 -31 14 -58 27 -60 29 -4 3 56 112 80 147 14 19 15 17 21 -26 4 -25 5 -71 2
-103 -4 -40 -3 -48 3 -27 13 45 12 123 -2 182 l-12 52 -67 -117z"/>
<path d="M620 741 c-44 -76 -64 -122 -38 -86 23 31 90 155 84 155 -3 0 -23
-31 -46 -69z"/>
<path d="M680 790 c-6 -11 -8 -20 -6 -20 3 0 10 9 16 20 6 11 8 20 6 20 -3 0
-10 -9 -16 -20z"/>
<path d="M777 768 c15 -43 13 -182 -3 -236 -6 -22 -5 -23 45 -20 28 2 52 7 54
13 1 6 -14 9 -36 7 l-39 -4 7 32 c4 18 7 57 7 89 0 55 0 56 14 26 7 -16 16
-51 20 -77 4 -27 11 -48 16 -48 17 0 -4 76 -48 168 -24 50 -45 92 -48 92 -2 0
3 -19 11 -42z"/>
<path d="M312 763 c-61 -78 -65 -109 -27 -190 13 -29 26 -53 28 -53 3 0 7 9
10 20 3 11 1 18 -4 14 -21 -13 -6 35 26 83 19 29 35 56 35 60 0 4 -9 19 -20
33 -22 29 -27 15 -6 -16 13 -18 11 -25 -19 -72 -24 -39 -34 -48 -39 -36 -12
31 -6 82 13 105 27 36 53 89 42 89 -5 0 -23 -17 -39 -37z"/>
<path d="M645 730 c-9 -16 -13 -30 -11 -30 3 0 12 14 21 30 9 17 13 30 11 30
-3 0 -12 -13 -21 -30z"/>
<path d="M361 635 c-19 -31 -31 -58 -27 -62 3 -3 6 -2 6 4 0 6 15 34 34 62 19
28 31 51 27 51 -4 0 -22 -25 -40 -55z"/>
<path d="M394 639 c-42 -65 -68 -125 -61 -143 8 -21 120 -107 128 -98 13 15
61 102 56 102 -3 0 -16 -18 -28 -40 -13 -22 -26 -40 -31 -40 -12 0 -11 3 32
74 22 36 40 69 40 73 -1 7 -74 63 -94 72 -20 8 8 -22 44 -48 l38 -28 -36 -61
c-20 -34 -39 -62 -42 -62 -3 0 -23 14 -43 31 -45 37 -44 51 4 129 41 67 35
103 -7 39z"/>
<path d="M244 545 c2 -70 7 -100 25 -133 12 -24 25 -42 28 -39 2 3 0 14 -6 24
-5 11 -12 37 -14 59 -2 21 -8 47 -12 57 -4 9 -11 41 -16 70 -7 45 -7 40 -5
-38z"/>
<path d="M535 540 c-9 -16 -13 -30 -11 -30 3 0 12 14 21 30 9 17 13 30 11 30
-3 0 -12 -13 -21 -30z"/>
<path d="M529 478 l-57 -97 47 -19 c25 -11 63 -25 84 -30 37 -10 38 -10 65 31
36 54 44 67 39 67 -2 0 -17 -18 -32 -41 -24 -37 -30 -40 -56 -35 -17 3 -48 14
-70 23 l-39 18 41 68 c23 39 39 77 37 90 -2 17 -16 -1 -59 -75z"/>
<path d="M1163 540 c-36 -22 -52 -74 -34 -109 6 -11 37 -35 69 -54 60 -35 75
-63 48 -86 -25 -21 -66 -5 -79 29 -7 18 -19 30 -29 30 -14 0 -18 -8 -18 -40 0
-34 4 -42 26 -50 68 -26 155 -1 173 50 16 47 -3 78 -69 118 -64 38 -81 65 -58
89 23 22 66 10 74 -22 4 -16 13 -25 25 -25 15 0 19 7 19 39 0 26 -5 41 -16 45
-32 12 -100 5 -131 -14z"/>
<path d="M1489 548 c-9 -7 -39 -68 -69 -135 -42 -97 -58 -123 -77 -128 -12 -3
-23 -10 -23 -16 0 -15 122 -7 128 9 2 6 -3 12 -12 12 -19 0 -20 13 -6 41 8 14
21 19 51 19 34 0 41 -4 50 -27 8 -21 7 -28 -6 -35 -39 -23 -8 -28 137 -26 110
2 152 6 156 16 2 7 -6 12 -22 12 -24 0 -26 3 -26 45 l0 45 50 0 c43 0 50 3 50
20 0 17 -7 20 -50 20 l-50 0 0 50 0 50 35 0 c28 0 38 -5 47 -25 18 -39 38 -31
38 15 l0 41 -112 -3 c-78 -2 -113 -7 -116 -15 -2 -8 5 -13 17 -13 20 0 21 -5
21 -114 0 -125 -4 -134 -59 -115 -26 9 -33 22 -72 140 -24 71 -49 129 -55 129
-5 0 -17 -6 -25 -12z m16 -145 c5 -20 3 -23 -19 -23 -30 0 -29 0 -16 36 11 29
23 24 35 -13z"/>
<path d="M2059 548 c-9 -7 -39 -68 -69 -135 -42 -97 -58 -123 -77 -128 -12 -3
-23 -10 -23 -16 0 -15 122 -7 128 9 2 6 -3 12 -12 12 -19 0 -20 13 -6 41 8 14
21 19 51 19 34 0 41 -4 50 -27 8 -21 7 -28 -6 -35 -32 -19 -12 -28 60 -28 57
0 75 3 75 14 0 8 -11 16 -24 20 -20 5 -30 25 -67 136 -24 71 -49 130 -55 130
-5 0 -17 -6 -25 -12z m16 -145 c5 -20 3 -23 -19 -23 -30 0 -29 0 -16 36 11 29
23 24 35 -13z"/>
<path d="M2949 548 c-9 -7 -39 -68 -69 -135 -42 -97 -58 -123 -77 -128 -12 -3
-23 -10 -23 -16 0 -15 122 -7 128 9 2 6 -3 12 -12 12 -19 0 -20 13 -6 41 8 14
21 19 51 19 34 0 41 -4 50 -27 8 -21 7 -28 -6 -35 -32 -19 -12 -28 60 -28 57
0 75 3 75 14 0 8 -11 16 -24 20 -20 5 -30 25 -67 136 -24 71 -49 130 -55 130
-5 0 -17 -6 -25 -12z m16 -145 c5 -20 3 -23 -19 -23 -30 0 -29 0 -16 36 11 29
23 24 35 -13z"/>
<path d="M2330 537 c0 -7 10 -17 23 -22 18 -8 29 -35 59 -134 20 -68 39 -125
42 -128 2 -3 13 -2 24 1 12 4 29 32 47 79 15 39 31 76 35 80 4 5 18 -30 30
-77 32 -122 58 -115 113 31 47 121 63 150 87 158 11 3 20 11 20 16 0 15 -123
7 -128 -8 -2 -8 5 -13 17 -13 20 0 20 -1 -5 -67 -39 -104 -39 -104 -65 -7 -20
73 -28 90 -45 92 -18 3 -26 -10 -54 -83 -18 -47 -36 -85 -40 -85 -4 0 -16 34
-27 75 -19 72 -19 75 -1 81 40 12 14 24 -57 24 -54 0 -75 -4 -75 -13z"/>
<path d="M3110 537 c0 -7 10 -17 22 -22 17 -8 33 -39 65 -130 23 -66 43 -124
45 -129 2 -5 13 -6 24 -2 14 4 38 47 79 136 58 129 59 130 92 130 l33 0 0
-114 c0 -106 -2 -115 -20 -121 -49 -16 -12 -25 100 -25 l119 0 10 38 c14 50
14 52 -9 52 -11 0 -20 -4 -20 -10 0 -23 -41 -50 -75 -50 l-35 0 0 49 0 50 53
3 c38 2 52 7 52 18 0 11 -14 16 -52 18 l-53 3 0 45 c0 44 0 44 35 44 24 0 39
-6 47 -20 20 -32 38 -24 38 15 l0 35 -170 0 c-144 0 -170 -2 -170 -15 0 -8 7
-15 15 -15 21 0 19 -8 -19 -91 l-34 -74 -12 30 c-40 98 -49 135 -34 135 7 0
14 7 14 15 0 12 -14 15 -70 15 -50 0 -70 -4 -70 -13z"/>
<path d="M600 521 c0 -4 20 -16 45 -25 25 -10 45 -20 45 -24 0 -3 -14 -30 -31
-60 -16 -30 -26 -51 -20 -48 12 8 75 116 70 120 -5 4 -101 46 -105 46 -2 0 -4
-4 -4 -9z"/>
<path d="M750 470 c-7 -17 -30 -58 -51 -91 l-39 -59 43 0 c53 0 122 31 138 62
12 23 12 23 -10 4 -11 -11 -21 -16 -21 -11 0 4 -7 2 -15 -5 -8 -6 -30 -15 -49
-20 l-34 -7 31 58 c29 52 35 57 57 52 33 -8 33 -8 20 -33 -6 -12 -9 -24 -7
-27 6 -6 37 50 37 67 0 5 -16 10 -35 10 -21 0 -37 6 -43 16 -7 13 -11 10 -22
-16z"/>
<path d="M830 490 l-45 -7 42 -1 c23 -1 45 3 48 8 3 6 5 9 3 8 -2 0 -23 -4
-48 -8z"/>
<path d="M316 448 c-9 -48 9 -114 39 -144 28 -28 41 -30 49 -9 3 8 0 14 -6 12
-17 -3 -58 63 -59 97 -1 17 -4 42 -8 56 -7 23 -8 23 -15 -12z"/>
<path d="M372 384 c22 -23 25 -33 16 -42 -7 -7 -8 -12 -2 -12 5 0 15 9 21 19
10 16 9 21 -10 33 -46 30 -51 30 -25 2z"/>
<path d="M436 319 c-31 -57 -29 -63 30 -75 33 -6 98 17 139 49 19 15 18 16
-15 11 -43 -7 -108 19 -118 46 -6 16 -12 12 -36 -31z m81 -20 c26 -8 32 -14
22 -20 -20 -12 -89 -11 -89 2 0 19 23 55 27 42 3 -7 20 -17 40 -24z"/>
<path d="M420 340 c-6 -11 -8 -20 -6 -20 3 0 10 9 16 20 6 11 8 20 6 20 -3 0
-10 -9 -16 -20z"/>
<path d="M625 291 c-9 -11 -36 -29 -59 -40 l-41 -21 51 0 c62 0 129 22 169 56
29 25 30 25 5 20 -14 -3 -38 -6 -55 -7 -29 -1 -29 -1 -5 -8 l25 -7 -27 -7
c-14 -4 -34 -10 -45 -14 -17 -7 -17 -6 0 11 9 10 15 22 12 27 -8 12 -9 12 -30
-10z"/>
</g>
</svg>
